# This file uses centimeters as units for non-parametric coordinates.

v -0.840537 -0.840537 -1.560619
v -0.500000 -0.500000 1.560619
v -0.840537 0.840537 -1.560619
v -0.500000 0.500000 1.560619
v 0.840537 0.840537 -1.560619
v 0.500000 0.500000 1.560619
v 0.840537 -0.840537 -1.560619
v 0.500000 -0.500000 1.560619
v -0.500000 0.500000 -0.619440
v 0.500000 0.500000 -0.619440
v 0.500000 -0.500000 -0.619440
v -0.500000 -0.500000 -0.619440
v -0.500000 0.500000 -0.118689
v 0.500000 0.500000 -0.118689
v 0.500000 -0.500000 -0.118689
v -0.500000 -0.500000 -0.118689
v -0.500000 0.500000 0.625347
v 0.500000 0.500000 0.625347
v 0.500000 -0.500000 0.625347
v -0.500000 -0.500000 0.625347
v -0.500000 0.500000 1.057914
v 0.500000 0.500000 1.057914
v 0.500000 -0.500000 1.057914
v -0.500000 -0.500000 1.057914
v -0.481592 -0.840537 -1.560619
v -0.481592 0.840537 -1.560619
v -0.286478 0.500000 -0.619440
v -0.286478 0.500000 -0.118689
v -0.286478 0.500000 0.625347
v -0.286478 0.500000 1.057914
v -0.286478 0.500000 1.560619
v -0.286478 -0.500000 1.560619
v -0.286478 -0.500000 1.057914
v -0.286478 -0.500000 0.625347
v -0.286478 -0.500000 -0.118689
v -0.286478 -0.500000 -0.619440
v 0.275410 -0.840537 -1.560619
v 0.275410 0.840537 -1.560619
v 0.163830 0.500000 -0.619440
v 0.163830 0.500000 -0.118689
v 0.163830 0.500000 0.625347
v 0.163830 0.500000 1.057914
v 0.163830 0.500000 1.560619
v 0.163830 -0.500000 1.560619
v 0.163830 -0.500000 1.057914
v 0.163830 -0.500000 0.625347
v 0.163830 -0.500000 -0.118689
v 0.163830 -0.500000 -0.619440
v 0.163830 -1.597401 1.013527
v -0.286478 -1.597401 1.013527
v 0.163830 -1.597401 1.446095
v -0.286478 -1.597401 1.446095
v 0.163830 -1.597401 -1.014715
v -0.286478 -1.597401 -1.014715
v 0.163830 -1.597401 -0.513965
v -0.286478 -1.597401 -0.513965
vt 0.375000 0.000000
vt 0.450385 0.000000
vt 0.375000 0.250000
vt 0.450385 0.250000
vt 0.450385 0.415957
vt 0.450385 0.500000
vt 0.375000 0.415957
vt 0.375000 0.500000
vt 0.375000 0.750000
vt 0.450385 0.750000
vt 0.375000 0.834043
vt 0.450385 0.834043
vt 0.790957 0.000000
vt 0.875000 0.000000
vt 0.790957 0.250000
vt 0.875000 0.250000
vt 0.125000 0.000000
vt 0.209043 0.000000
vt 0.125000 0.250000
vt 0.209043 0.250000
vt 0.490493 0.415957
vt 0.490493 0.500000
vt 0.490493 0.750000
vt 0.490493 0.834043
vt 0.490493 0.250000
vt 0.490493 0.000000
vt 0.550088 0.415957
vt 0.550088 0.500000
vt 0.550088 0.750000
vt 0.550088 0.834043
vt 0.550088 0.250000
vt 0.550088 0.000000
vt 0.584735 0.415957
vt 0.584735 0.500000
vt 0.584735 0.750000
vt 0.584735 0.834043
vt 0.584735 0.250000
vt 0.584735 0.000000
vt 0.625000 0.415957
vt 0.625000 0.500000
vt 0.625000 0.750000
vt 0.625000 0.834043
vt 0.625000 0.250000
vt 0.625000 0.000000
vt 0.321620 0.000000
vt 0.321620 0.250000
vt 0.375000 0.303380
vt 0.450385 0.303380
vt 0.490493 0.303380
vt 0.550088 0.303380
vt 0.584735 0.303380
vt 0.625000 0.303380
vt 0.678380 0.000000
vt 0.678380 0.250000
vt 0.584735 1.000000
vt 0.584735 0.946620
vt 0.625000 1.000000
vt 0.625000 0.946620
vt 0.550088 1.000000
vt 0.550088 0.946620
vt 0.490493 1.000000
vt 0.490493 0.946620
vt 0.450385 1.000000
vt 0.450385 0.946620
vt 0.375000 0.946620
vt 0.375000 1.000000
vt 0.550088 0.946620
vt 0.550088 0.834043
vt 0.584735 0.946620
vt 0.584735 0.834043
vt 0.450385 0.946620
vt 0.450385 0.834043
vt 0.490493 0.946620
vt 0.490493 0.834043
vn -0.940341 0.000000 0.340234
vn -0.984972 0.000000 0.172712
vn -0.940341 0.000000 0.340234
vn -0.940341 0.000000 0.340234
vn -0.984972 0.000000 0.172712
vn -0.984972 0.000000 0.172712
vn 0.000000 0.990420 0.138085
vn 0.000000 0.984972 0.172712
vn 0.000000 0.940341 0.340234
vn 0.000000 0.940341 0.340234
vn 0.000000 0.984972 0.172712
vn 0.000000 0.940341 0.340234
vn 0.940341 0.000000 0.340234
vn 0.984972 0.000000 0.172712
vn 0.940341 0.000000 0.340234
vn 0.940341 0.000000 0.340234
vn 0.984972 0.000000 0.172712
vn 0.984972 0.000000 0.172712
vn 0.000000 -0.940341 0.340234
vn 0.000000 -0.984972 0.172712
vn 0.000000 -0.940341 0.340234
vn 0.000000 -0.940341 0.340234
vn 0.000000 -0.984972 0.172712
vn 0.000000 -0.973216 0.229891
vn 0.000000 0.000000 1.000000
vn 0.000000 0.000000 1.000000
vn 0.000000 0.000000 1.000000
vn 0.000000 0.000000 1.000000
vn 0.000000 0.000000 1.000000
vn 0.000000 0.000000 1.000000
vn -0.000000 0.000000 -1.000000
vn -0.000000 0.000000 -1.000000
vn -0.000000 0.000000 -1.000000
vn -0.000000 0.000000 -1.000000
vn -0.000000 0.000000 -1.000000
vn -0.000000 0.000000 -1.000000
vn 0.000000 0.990420 0.138085
vn 0.000000 1.000000 0.000000
vn 0.000000 0.984972 0.172712
vn 0.000000 0.984972 0.172712
vn 0.000000 1.000000 0.000000
vn 0.000000 1.000000 0.000000
vn 0.984972 0.000000 0.172712
vn 0.984972 0.000000 0.172712
vn 1.000000 0.000000 -0.000000
vn 1.000000 0.000000 -0.000000
vn 0.984972 0.000000 0.172712
vn 1.000000 0.000000 -0.000000
vn 0.000000 -0.973216 0.229891
vn 0.000000 -0.984972 0.172712
vn 0.000000 -1.000000 0.000000
vn 0.000000 -1.000000 0.000000
vn 0.000000 -0.984972 0.172712
vn 0.000000 -1.000000 0.000000
vn -0.984972 0.000000 0.172712
vn -0.984972 0.000000 0.172712
vn -1.000000 0.000000 0.000000
vn -1.000000 0.000000 0.000000
vn -0.984972 0.000000 0.172712
vn -1.000000 0.000000 0.000000
vn 0.000000 1.000000 0.000000
vn 0.000000 1.000000 0.000000
vn 0.000000 1.000000 0.000000
vn 0.000000 1.000000 0.000000
vn 0.000000 1.000000 0.000000
vn 0.000000 1.000000 0.000000
vn 1.000000 0.000000 -0.000000
vn 1.000000 0.000000 -0.000000
vn 1.000000 0.000000 -0.000000
vn 1.000000 0.000000 -0.000000
vn 1.000000 0.000000 -0.000000
vn 1.000000 0.000000 -0.000000
vn 0.000000 -1.000000 0.000000
vn 0.000000 -1.000000 0.000000
vn 0.000000 -1.000000 0.000000
vn 0.000000 -1.000000 0.000000
vn 0.000000 -1.000000 0.000000
vn 0.000000 -1.000000 0.000000
vn -1.000000 0.000000 0.000000
vn -1.000000 0.000000 0.000000
vn -1.000000 0.000000 0.000000
vn -1.000000 0.000000 0.000000
vn -1.000000 0.000000 0.000000
vn -1.000000 0.000000 0.000000
vn 0.000000 1.000000 0.000000
vn 0.000000 1.000000 0.000000
vn 0.000000 1.000000 0.000000
vn 0.000000 1.000000 0.000000
vn 0.000000 1.000000 0.000000
vn 0.000000 1.000000 0.000000
vn 1.000000 0.000000 -0.000000
vn 1.000000 0.000000 -0.000000
vn 1.000000 0.000000 -0.000000
vn 1.000000 0.000000 -0.000000
vn 1.000000 0.000000 -0.000000
vn 1.000000 0.000000 -0.000000
vn 0.000000 -1.000000 0.000000
vn 0.000000 -1.000000 0.000000
vn 0.000000 -1.000000 0.000000
vn 0.000000 -1.000000 0.000000
vn 0.000000 -1.000000 0.000000
vn 0.000000 -1.000000 0.000000
vn -1.000000 0.000000 0.000000
vn -1.000000 0.000000 0.000000
vn -1.000000 0.000000 0.000000
vn -1.000000 0.000000 0.000000
vn -1.000000 0.000000 0.000000
vn -1.000000 0.000000 0.000000
vn 0.000000 1.000000 0.000000
vn 0.000000 1.000000 0.000000
vn 0.000000 1.000000 0.000000
vn 0.000000 1.000000 0.000000
vn 0.000000 1.000000 0.000000
vn 0.000000 1.000000 0.000000
vn 1.000000 0.000000 -0.000000
vn 1.000000 0.000000 -0.000000
vn 1.000000 0.000000 -0.000000
vn 1.000000 0.000000 -0.000000
vn 1.000000 0.000000 -0.000000
vn 1.000000 0.000000 -0.000000
vn 0.000000 -1.000000 0.000000
vn 0.000000 -1.000000 0.000000
vn 0.000000 -1.000000 0.000000
vn 0.000000 -1.000000 0.000000
vn 0.000000 -1.000000 0.000000
vn 0.000000 -1.000000 0.000000
vn -1.000000 0.000000 0.000000
vn -1.000000 0.000000 0.000000
vn -1.000000 0.000000 0.000000
vn -1.000000 0.000000 0.000000
vn -1.000000 0.000000 0.000000
vn -1.000000 0.000000 0.000000
vn -0.000000 0.000000 -1.000000
vn -0.000000 0.000000 -1.000000
vn -0.000000 0.000000 -1.000000
vn -0.000000 0.000000 -1.000000
vn -0.000000 0.000000 -1.000000
vn -0.000000 0.000000 -1.000000
vn 0.000000 0.940341 0.340234
vn 0.000000 0.973216 0.229891
vn 0.000000 0.940341 0.340234
vn 0.000000 0.940341 0.340234
vn 0.000000 0.973216 0.229891
vn 0.000000 0.984972 0.172712
vn 0.000000 0.973216 0.229891
vn 0.000000 1.000000 0.000000
vn 0.000000 0.984972 0.172712
vn 0.000000 0.984972 0.172712
vn 0.000000 1.000000 0.000000
vn 0.000000 1.000000 0.000000
vn 0.000000 1.000000 0.000000
vn 0.000000 1.000000 0.000000
vn 0.000000 1.000000 0.000000
vn 0.000000 1.000000 0.000000
vn 0.000000 1.000000 0.000000
vn 0.000000 1.000000 0.000000
vn 0.000000 1.000000 0.000000
vn 0.000000 1.000000 0.000000
vn 0.000000 1.000000 0.000000
vn 0.000000 1.000000 0.000000
vn 0.000000 1.000000 0.000000
vn 0.000000 1.000000 0.000000
vn 0.000000 1.000000 0.000000
vn 0.000000 1.000000 0.000000
vn 0.000000 1.000000 0.000000
vn 0.000000 1.000000 0.000000
vn 0.000000 1.000000 0.000000
vn 0.000000 1.000000 0.000000
vn 0.000000 0.000000 1.000000
vn 0.000000 0.000000 1.000000
vn 0.000000 0.000000 1.000000
vn 0.000000 0.000000 1.000000
vn 0.000000 0.000000 1.000000
vn 0.000000 0.000000 1.000000
vn 0.000000 -1.000000 0.000000
vn 0.000000 -1.000000 0.000000
vn 0.000000 -1.000000 0.000000
vn 0.000000 -1.000000 0.000000
vn 0.000000 -1.000000 0.000000
vn 0.000000 -1.000000 0.000000
vn 0.000000 -1.000000 0.000000
vn 0.000000 -1.000000 0.000000
vn 0.000000 -1.000000 0.000000
vn 0.000000 -1.000000 0.000000
vn 0.000000 -1.000000 0.000000
vn 0.000000 -1.000000 0.000000
vn 0.000000 -1.000000 0.000000
vn 0.000000 -1.000000 0.000000
vn 0.000000 -1.000000 0.000000
vn 0.000000 -1.000000 0.000000
vn 0.000000 -1.000000 0.000000
vn 0.000000 -1.000000 0.000000
vn 0.000000 -0.973216 0.229891
vn 0.000000 -0.978314 0.207128
vn 0.000000 -1.000000 0.000000
vn 0.000000 -1.000000 0.000000
vn 0.000000 -0.978314 0.207128
vn 0.000000 -1.000000 0.000000
vn 0.000000 -0.978314 0.207128
vn 0.000000 -0.973216 0.229891
vn 0.000000 -0.940341 0.340234
vn 0.000000 -0.940341 0.340234
vn 0.000000 -0.973216 0.229891
vn 0.000000 -0.940341 0.340234
vn -0.000000 0.000000 -1.000000
vn -0.000000 0.000000 -1.000000
vn -0.000000 0.000000 -1.000000
vn -0.000000 0.000000 -1.000000
vn -0.000000 0.000000 -1.000000
vn -0.000000 0.000000 -1.000000
vn 0.000000 0.940341 0.340234
vn 0.000000 0.984972 0.172712
vn 0.000000 0.940341 0.340234
vn 0.000000 0.940341 0.340234
vn 0.000000 0.984972 0.172712
vn 0.000000 0.990420 0.138085
vn 0.000000 0.984972 0.172712
vn 0.000000 1.000000 0.000000
vn 0.000000 0.990420 0.138085
vn 0.000000 0.990420 0.138085
vn 0.000000 1.000000 0.000000
vn 0.000000 1.000000 0.000000
vn 0.000000 1.000000 0.000000
vn 0.000000 1.000000 0.000000
vn 0.000000 1.000000 0.000000
vn 0.000000 1.000000 0.000000
vn 0.000000 1.000000 0.000000
vn 0.000000 1.000000 0.000000
vn 0.000000 1.000000 0.000000
vn 0.000000 1.000000 0.000000
vn 0.000000 1.000000 0.000000
vn 0.000000 1.000000 0.000000
vn 0.000000 1.000000 0.000000
vn 0.000000 1.000000 0.000000
vn 0.000000 1.000000 0.000000
vn 0.000000 1.000000 0.000000
vn 0.000000 1.000000 0.000000
vn 0.000000 1.000000 0.000000
vn 0.000000 1.000000 0.000000
vn 0.000000 1.000000 0.000000
vn 0.000000 0.000000 1.000000
vn 0.000000 0.000000 1.000000
vn 0.000000 0.000000 1.000000
vn 0.000000 0.000000 1.000000
vn 0.000000 0.000000 1.000000
vn 0.000000 0.000000 1.000000
vn 0.000000 -1.000000 0.000000
vn 0.000000 -1.000000 0.000000
vn 0.000000 -1.000000 0.000000
vn 0.000000 -1.000000 0.000000
vn 0.000000 -1.000000 0.000000
vn 0.000000 -1.000000 0.000000
vn 0.000000 -1.000000 0.000000
vn 0.000000 -1.000000 0.000000
vn 0.000000 -1.000000 0.000000
vn 0.000000 -1.000000 0.000000
vn 0.000000 -1.000000 0.000000
vn 0.000000 -1.000000 0.000000
vn 0.000000 -1.000000 0.000000
vn 0.000000 -1.000000 0.000000
vn 0.000000 -1.000000 0.000000
vn 0.000000 -1.000000 0.000000
vn 0.000000 -1.000000 0.000000
vn 0.000000 -1.000000 0.000000
vn 0.000000 -1.000000 0.000000
vn 0.000000 -1.000000 0.000000
vn 0.000000 -1.000000 0.000000
vn 0.000000 -1.000000 0.000000
vn 0.000000 -1.000000 0.000000
vn 0.000000 -1.000000 0.000000
vn 0.000000 -0.973216 0.229891
vn 0.000000 -0.978314 0.207128
vn 0.000000 -0.940341 0.340234
vn 0.000000 -0.940341 0.340234
vn 0.000000 -0.978314 0.207128
vn 0.000000 -0.940341 0.340234
vn -0.000000 -0.333479 -0.942758
vn -0.000000 -0.333479 -0.942757
vn -0.000000 -0.333479 -0.942757
vn -0.000000 -0.333479 -0.942757
vn -0.000000 -0.333479 -0.942757
vn -0.000000 -0.333479 -0.942758
vn 1.000000 0.000000 -0.000000
vn 1.000000 0.000000 -0.000000
vn 1.000000 0.000000 -0.000000
vn 1.000000 0.000000 -0.000000
vn 1.000000 0.000000 -0.000000
vn 1.000000 0.000000 -0.000000
vn 0.000000 0.333479 0.942758
vn 0.000000 0.333479 0.942757
vn 0.000000 0.333479 0.942757
vn 0.000000 0.333479 0.942757
vn 0.000000 0.333479 0.942757
vn 0.000000 0.333479 0.942758
vn -1.000000 0.000000 0.000000
vn -1.000000 0.000000 0.000000
vn -1.000000 0.000000 0.000000
vn -1.000000 0.000000 0.000000
vn -1.000000 0.000000 0.000000
vn -1.000000 0.000000 0.000000
vn -0.000000 0.338880 -0.940830
vn -0.000000 0.338880 -0.940830
vn -0.000000 0.338880 -0.940830
vn -0.000000 0.338880 -0.940830
vn -0.000000 0.338880 -0.940830
vn -0.000000 0.338880 -0.940830
vn 1.000000 0.000000 -0.000000
vn 1.000000 0.000000 -0.000000
vn 1.000000 0.000000 -0.000000
vn 1.000000 0.000000 -0.000000
vn 1.000000 0.000000 -0.000000
vn 1.000000 0.000000 -0.000000
vn 0.000000 -0.338880 0.940830
vn 0.000000 -0.338880 0.940830
vn 0.000000 -0.338880 0.940830
vn 0.000000 -0.338880 0.940830
vn 0.000000 -0.338880 0.940830
vn 0.000000 -0.338880 0.940830
vn -1.000000 0.000000 0.000000
vn -1.000000 0.000000 0.000000
vn -1.000000 0.000000 0.000000
vn -1.000000 0.000000 0.000000
vn -1.000000 0.000000 0.000000
vn -1.000000 0.000000 0.000000
f 1/1/1 12/2/2 3/3/3
f 3/3/4 12/2/5 9/4/6
f 39/5/7 10/6/8 38/7/9
f 38/7/10 10/6/11 5/8/12
f 5/8/13 10/6/14 7/9/15
f 7/9/16 10/6/17 11/10/18
f 7/9/19 11/10/20 37/11/21
f 37/11/22 11/10/23 48/12/24
f 44/13/25 8/14/26 43/15/27
f 43/15/28 8/14/29 6/16/30
f 7/17/31 37/18/32 5/19/33
f 5/19/34 37/18/35 38/20/36
f 39/5/37 40/21/38 10/6/39
f 10/6/40 40/21/41 14/22/42
f 11/10/43 10/6/44 15/23/45
f 15/23/46 10/6/47 14/22/48
f 48/12/49 11/10/50 47/24/51
f 47/24/52 11/10/53 15/23/54
f 9/4/55 12/2/56 13/25/57
f 13/25/58 12/2/59 16/26/60
f 40/21/61 41/27/62 14/22/63
f 14/22/64 41/27/65 18/28/66
f 15/23/67 14/22/68 19/29/69
f 19/29/70 14/22/71 18/28/72
f 47/24/73 15/23/74 46/30/75
f 46/30/76 15/23/77 19/29/78
f 13/25/79 16/26/80 17/31/81
f 17/31/82 16/26/83 20/32/84
f 41/27/85 42/33/86 18/28/87
f 18/28/88 42/33/89 22/34/90
f 19/29/91 18/28/92 23/35/93
f 23/35/94 18/28/95 22/34/96
f 46/30/97 19/29/98 45/36/99
f 45/36/100 19/29/101 23/35/102
f 17/31/103 20/32/104 21/37/105
f 21/37/106 20/32/107 24/38/108
f 42/33/109 43/39/110 22/34/111
f 22/34/112 43/39/113 6/40/114
f 23/35/115 22/34/116 8/41/117
f 8/41/118 22/34/119 6/40/120
f 45/36/121 23/35/122 44/42/123
f 44/42/124 23/35/125 8/41/126
f 21/37/127 24/38/128 4/43/129
f 4/43/130 24/38/131 2/44/132
f 25/45/133 1/1/134 26/46/135
f 26/46/136 1/1/137 3/3/138
f 3/3/139 9/4/140 26/47/141
f 26/47/142 9/4/143 27/48/144
f 9/4/145 13/25/146 27/48/147
f 27/48/148 13/25/149 28/49/150
f 13/25/151 17/31/152 28/49/153
f 28/49/154 17/31/155 29/50/156
f 17/31/157 21/37/158 29/50/159
f 29/50/160 21/37/161 30/51/162
f 21/37/163 4/43/164 30/51/165
f 30/51/166 4/43/167 31/52/168
f 2/44/169 32/53/170 4/43/171
f 4/43/172 32/53/173 31/54/174
f 24/55/175 33/56/176 2/57/177
f 2/57/178 33/56/179 32/58/180
f 20/59/181 34/60/182 24/55/183
f 24/55/184 34/60/185 33/56/186
f 16/61/187 35/62/188 20/59/189
f 20/59/190 35/62/191 34/60/192
f 12/63/193 36/64/194 16/61/195
f 16/61/196 36/64/197 35/62/198
f 36/64/199 12/63/200 25/65/201
f 25/65/202 12/63/203 1/66/204
f 37/18/205 25/45/206 38/20/207
f 38/20/208 25/45/209 26/46/210
f 26/47/211 27/48/212 38/7/213
f 38/7/214 27/48/215 39/5/216
f 27/48/217 28/49/218 39/5/219
f 39/5/220 28/49/221 40/21/222
f 28/49/223 29/50/224 40/21/225
f 40/21/226 29/50/227 41/27/228
f 29/50/229 30/51/230 41/27/231
f 41/27/232 30/51/233 42/33/234
f 30/51/235 31/52/236 42/33/237
f 42/33/238 31/52/239 43/39/240
f 32/53/241 44/13/242 31/54/243
f 31/54/244 44/13/245 43/15/246
f 33/56/247 45/36/248 32/58/249
f 32/58/250 45/36/251 44/42/252
f 50/67/253 49/68/254 52/69/255
f 52/69/256 49/68/257 51/70/258
f 35/62/259 47/24/260 34/60/261
f 34/60/262 47/24/263 46/30/264
f 54/71/265 53/72/266 56/73/267
f 56/73/268 53/72/269 55/74/270
f 48/12/271 36/64/272 37/11/273
f 37/11/274 36/64/275 25/65/276
f 34/60/277 46/30/278 50/67/279
f 50/67/280 46/30/281 49/68/282
f 46/30/283 45/36/284 49/68/285
f 49/68/286 45/36/287 51/70/288
f 45/36/289 33/56/290 51/70/291
f 51/70/292 33/56/293 52/69/294
f 34/60/295 50/67/296 33/56/297
f 33/56/298 50/67/299 52/69/300
f 36/64/301 48/12/302 54/71/303
f 54/71/304 48/12/305 53/72/306
f 47/24/307 55/74/308 48/12/309
f 48/12/310 55/74/311 53/72/312
f 47/24/313 35/62/314 55/74/315
f 55/74/316 35/62/317 56/73/318
f 35/62/319 36/64/320 56/73/321
f 56/73/322 36/64/323 54/71/324
