# This file uses centimeters as units for non-parametric coordinates.

v 0.860839 -0.860839 -1.000000
v 1.000000 -0.860839 -0.860839
v 0.860839 -1.000000 -0.860839
v 1.000000 0.860839 -0.860839
v 0.860839 0.860839 -1.000000
v 0.860839 1.000000 -0.860839
v -1.000000 -0.860839 -0.860839
v -0.860839 -0.860839 -1.000000
v -0.860839 -1.000000 -0.860839
v -0.860839 0.860839 -1.000000
v -1.000000 0.860839 -0.860839
v -0.860839 1.000000 -0.860839
v -0.860839 -0.860839 1.000000
v -1.000000 -0.860839 0.860839
v -0.860839 -1.000000 0.860839
v -0.860839 1.000000 0.860839
v -1.000000 0.860839 0.860839
v -0.860839 0.860839 1.000000
v 1.000000 -0.860839 0.860839
v 0.860839 -0.860839 1.000000
v 0.860839 -1.000000 0.860839
v 0.860839 0.860839 1.000000
v 1.000000 0.860839 0.860839
v 0.860839 1.000000 0.860839
vt 0.981727 0.501091
vt 0.766613 0.518604
vt 0.731845 0.518546
vt 0.766030 0.750410
vt 0.981998 0.750382
vt 0.018809 0.517465
vt 0.018839 0.500043
vt 0.233149 0.500653
vt 0.999134 0.518424
vt 0.981974 0.733036
vt 0.018383 0.750331
vt 0.232384 0.749726
vt 0.267793 0.500670
vt 0.482100 0.500271
vt 0.232439 0.732402
vt 0.267110 0.749711
vt 0.267165 0.732387
vt 0.482721 0.750132
vt 0.517384 0.732793
vt 0.981677 0.518426
vt 0.766006 0.733063
vt 0.018437 0.733007
vt 0.233119 0.518075
vt 0.482150 0.517661
vt 0.482776 0.732808
vt 0.267844 0.518060
vt 0.731237 0.733005
vt 0.516758 0.517646
vt 0.731272 0.767638
vt 0.731085 0.980970
vt 0.517457 0.981398
vt 0.517419 0.767426
vt 0.516777 0.482929
vt 0.516408 0.267871
vt 0.731864 0.483828
vt 0.731583 0.268305
vt 0.764871 0.734192
vt 0.982812 0.517297
vt 0.999431 0.733033
vt 0.234247 0.516945
vn 0.000000 -0.707107 -0.707107
vn 0.000000 -0.707107 -0.707107
vn 0.000000 -0.707107 -0.707107
vn 0.000000 -0.707107 -0.707107
vn 0.707107 0.000000 -0.707107
vn 0.707107 0.000000 -0.707107
vn 0.707107 0.000000 -0.707107
vn 0.707107 0.000000 -0.707107
vn 0.707107 -0.707107 0.000000
vn 0.707107 -0.707107 0.000000
vn 0.707107 -0.707107 0.000000
vn 0.707107 -0.707107 0.000000
vn 0.707107 0.707107 0.000000
vn 0.707107 0.707107 0.000000
vn 0.707107 0.707107 0.000000
vn 0.707107 0.707107 0.000000
vn 0.000000 0.707107 -0.707107
vn 0.000000 0.707107 -0.707107
vn 0.000000 0.707107 -0.707107
vn 0.000000 0.707107 -0.707107
vn -0.707107 -0.707107 0.000000
vn -0.707107 -0.707107 0.000000
vn -0.707107 -0.707107 0.000000
vn -0.707107 -0.707107 0.000000
vn -0.707107 0.000000 -0.707107
vn -0.707107 0.000000 -0.707107
vn -0.707107 0.000000 -0.707107
vn -0.707107 0.000000 -0.707107
vn -0.707107 0.707107 0.000000
vn -0.707107 0.707107 0.000000
vn -0.707107 0.707107 0.000000
vn -0.707107 0.707107 0.000000
vn 0.000000 -0.707107 0.707107
vn 0.000000 -0.707107 0.707107
vn 0.000000 -0.707107 0.707107
vn 0.000000 -0.707107 0.707107
vn -0.707107 0.000000 0.707107
vn -0.707107 0.000000 0.707107
vn -0.707107 0.000000 0.707107
vn -0.707107 0.000000 0.707107
vn 0.000000 0.707107 0.707107
vn 0.000000 0.707107 0.707107
vn 0.000000 0.707107 0.707107
vn 0.000000 0.707107 0.707107
vn 0.707107 0.000000 0.707107
vn 0.707107 0.000000 0.707107
vn 0.707107 0.000000 0.707107
vn 0.707107 0.000000 0.707107
vn 0.000000 0.000000 -1.000000
vn 0.000000 0.000000 -1.000000
vn 0.000000 0.000000 -1.000000
vn 0.000000 0.000000 -1.000000
vn -1.000000 0.000000 0.000000
vn -1.000000 0.000000 0.000000
vn -1.000000 0.000000 0.000000
vn -1.000000 0.000000 0.000000
vn 0.000000 0.000000 1.000000
vn 0.000000 0.000000 1.000000
vn 0.000000 0.000000 1.000000
vn 0.000000 0.000000 1.000000
vn 1.000000 0.000000 0.000000
vn 1.000000 0.000000 0.000000
vn 1.000000 0.000000 0.000000
vn 1.000000 0.000000 0.000000
vn 0.000000 1.000000 0.000000
vn 0.000000 1.000000 0.000000
vn 0.000000 1.000000 0.000000
vn 0.000000 1.000000 0.000000
vn 0.000000 -1.000000 0.000000
vn 0.000000 -1.000000 0.000000
vn 0.000000 -1.000000 0.000000
vn 0.000000 -1.000000 0.000000
vn 0.577350 -0.577350 -0.577350
vn 0.577350 -0.577350 -0.577350
vn 0.577350 -0.577350 -0.577350
vn 0.577350 0.577350 -0.577350
vn 0.577350 0.577350 -0.577350
vn 0.577350 0.577350 -0.577350
vn -0.577350 -0.577350 -0.577350
vn -0.577350 -0.577350 -0.577350
vn -0.577350 -0.577350 -0.577350
vn -0.577350 0.577350 -0.577350
vn -0.577350 0.577350 -0.577350
vn -0.577350 0.577350 -0.577350
vn -0.577350 -0.577350 0.577350
vn -0.577350 -0.577350 0.577350
vn -0.577350 -0.577350 0.577350
vn -0.577350 0.577350 0.577350
vn -0.577350 0.577350 0.577350
vn -0.577350 0.577350 0.577350
vn 0.577350 -0.577350 0.577350
vn 0.577350 -0.577350 0.577350
vn 0.577350 -0.577350 0.577350
vn 0.577350 0.577350 0.577350
vn 0.577350 0.577350 0.577350
vn 0.577350 0.577350 0.577350
s 1
g cube:Mesh
f 1/2/1 3/35/2 8/20/3
f 8/20/3 3/35/2 9/1/4
s 2
f 2/3/5 1/2/6 4/27/7
f 4/27/7 1/2/6 5/21/8
s 3
f 3/35/9 2/3/10 21/33/11
f 21/33/11 2/3/10 19/28/12
s 4
f 4/27/13 6/29/14 23/19/15
f 23/19/15 6/29/14 24/32/16
s 5
f 6/4/17 5/21/18 12/5/19
f 12/5/19 5/21/18 10/10/20
s 6
f 7/6/21 9/7/22 14/23/23
f 14/23/23 9/7/22 15/8/24
s 7
f 8/20/25 7/9/26 10/10/27
f 10/10/27 7/9/26 11/39/28
s 8
f 12/11/29 11/22/30 16/12/31
f 16/12/31 11/22/30 17/15/32
s 9
f 13/26/33 15/13/34 20/24/35
f 20/24/35 15/13/34 21/14/36
s 10
f 14/23/37 13/26/38 17/15/39
f 17/15/39 13/26/38 18/17/40
s 11
f 16/16/41 18/17/42 24/18/43
f 24/18/43 18/17/42 22/25/44
s 12
f 20/24/45 19/28/46 22/25/47
f 22/25/47 19/28/46 23/19/48
s 13
f 5/21/49 1/2/50 8/20/51
f 5/21/49 8/20/51 10/10/52
s 14
f 14/23/53 17/15/54 11/22/55
f 14/23/53 11/22/55 7/6/56
s 15
f 20/24/57 22/25/58 13/26/59
f 22/25/58 18/17/60 13/26/59
s 16
f 2/3/61 4/27/62 19/28/63
f 4/27/62 23/19/64 19/28/63
s 17
f 6/29/65 12/30/66 24/32/67
f 12/30/66 16/31/68 24/32/67
s 18
f 3/35/69 21/33/70 15/34/71
f 3/35/69 15/34/71 9/36/72
s off
f 1/2/73 2/3/74 3/35/75
f 4/27/76 5/21/77 6/37/78
f 7/9/79 8/20/80 9/38/81
f 10/10/82 11/39/83 12/5/84
f 13/26/85 14/23/86 15/40/87
f 16/12/88 17/15/89 18/17/90
f 19/28/91 20/24/92 21/14/93
f 22/25/94 23/19/95 24/18/96
