# This file uses centimeters as units for non-parametric coordinates.

v 50.000000 -1.982419 -50.000000
v 50.000000 -1.982419 50.000000
v -50.000000 -1.982419 50.000000
v -50.000000 -1.982419 -50.000000
v 50.000000 1.982419 -50.000000
v -50.000000 1.982419 -50.000000
v 50.000000 1.982419 50.000000
v -50.000000 1.982419 50.000000
vt 0.400397 0.509482
vt 0.535526 0.851538
vt 0.058398 0.644884
vt 0.193591 0.986959
vt 0.274516 0.548404
vt 0.000000 0.274516
vt 0.548404 0.273887
vt 0.273887 0.000000
vt 0.405482 0.496443
vt 0.548597 0.856660
vt 0.045313 0.639791
vt 0.188511 1.000000
vn 0.000000 1.000000 0.000000
vn 0.000000 1.000000 0.000000
vn 0.000000 1.000000 0.000000
vn 0.000000 1.000000 0.000000
vn 0.000000 1.000000 0.000000
vn 0.000000 1.000000 0.000000
vn 0.000000 -1.000000 0.000000
vn 0.000000 -1.000000 0.000000
vn 0.000000 -1.000000 0.000000
vn 0.000000 -1.000000 0.000000
vn 0.000000 -1.000000 0.000000
vn 0.000000 -1.000000 0.000000
vn 0.000000 0.000000 -1.000000
vn 0.000000 0.000000 -1.000000
vn 0.000000 0.000000 -1.000000
vn 0.000000 0.000000 -1.000000
vn 0.000000 0.000000 -1.000000
vn 0.000000 0.000000 -1.000000
vn 1.000000 0.000000 0.000000
vn 1.000000 0.000000 0.000000
vn 1.000000 0.000000 0.000000
vn 1.000000 0.000000 0.000000
vn 1.000000 0.000000 0.000000
vn 1.000000 0.000000 0.000000
vn -1.000000 0.000000 0.000000
vn -1.000000 0.000000 0.000000
vn -1.000000 0.000000 0.000000
vn -1.000000 0.000000 0.000000
vn -1.000000 0.000000 0.000000
vn -1.000000 0.000000 0.000000
vn 0.000000 0.000000 1.000000
vn 0.000000 0.000000 1.000000
vn 0.000000 0.000000 1.000000
vn 0.000000 0.000000 1.000000
vn 0.000000 0.000000 1.000000
vn 0.000000 0.000000 1.000000
s off
g fatplane:fatplane
f 5/1/1 6/2/2 7/3/3
f 6/2/4 8/4/5 7/3/6
f 1/5/7 2/6/8 4/7/9
f 4/7/10 2/6/11 3/8/12
f 1/9/13 4/10/14 5/1/15
f 5/1/16 4/10/17 6/2/18
f 2/11/19 1/9/20 7/3/21
f 7/3/22 1/9/23 5/1/24
f 4/10/25 3/12/26 6/2/27
f 6/2/28 3/12/29 8/4/30
f 3/12/31 2/11/32 8/4/33
f 8/4/34 2/11/35 7/3/36
